
<svg width="0" height="0" class="hidden">
    <!--    Pencil  -->
    <symbol xmlns="http://www.w3.org/2000/svg" id="pencil" viewBox="0 0 24 24">
        <polygon points="14.604 5.687 0 20.29 0 24 3.71 24 18.313 9.396 14.604 5.687"></polygon>
        <path d="M23.232.768a2.624,2.624,0,0,0-3.71,0l-3.5,3.505,3.709,3.709,3.5-3.5A2.624,2.624,0,0,0,23.232.768Z"></path>
    </symbol>

    <!--    feature1-->
    <symbol xmlns="http://www.w3.org/2000/svg" id="feature1" viewBox="0 0 24 24">
        <path d="M4,11C1.79,11,0,9.21,0,7v-3C0,1.79,1.79,0,4,0s4,1.79,4,4v3c0,2.21-1.79,4-4,4Zm0-9c-1.1,0-2,.9-2,2v3c0,1.1,.9,2,2,2s2-.9,2-2v-3c0-1.1-.9-2-2-2Zm5.75,20.9c.37-.41,.33-1.04-.08-1.41-.42-.38-.67-.92-.67-1.49v-4c0-.55-.45-1-1-1s-1,.45-1,1v4c0,1.14,.49,2.22,1.33,2.98,.19,.17,.43,.25,.67,.25,.27,0,.55-.11,.75-.33Zm4.25-13.9V1c0-.4-.24-.77-.62-.92-.37-.15-.8-.07-1.09,.22l-2.44,2.44c-.39,.39-.39,1.02,0,1.41s1.02,.39,1.41,0l.74-.74v5.59c0,.55,.45,1,1,1s1-.45,1-1ZM5,23V14c0-.4-.24-.77-.62-.92-.37-.15-.8-.07-1.09,.22L.85,15.74c-.39,.39-.39,1.02,0,1.41s1.02,.39,1.41,0l.74-.74v6.59c0,.55,.45,1,1,1s1-.45,1-1Zm12,1c-3.86,0-7-3.14-7-7s3.14-7,7-7,7,3.14,7,7-3.14,7-7,7Zm0-12c-2.76,0-5,2.24-5,5s2.24,5,5,5,5-2.24,5-5-2.24-5-5-5Zm1,7.41l2.71-2.71c.39-.39,.39-1.02,0-1.41s-1.02-.39-1.41,0l-2.71,2.71-1.71-1.71c-.39-.39-1.02-.39-1.41,0s-.39,1.02,0,1.41l1.71,1.71c.39,.39,.9,.58,1.41,.58s1.02-.19,1.41-.58Z"></path>
    </symbol>

    <!--    feature2-->
    <symbol xmlns="http://www.w3.org/2000/svg" id="feature2" viewBox="0 0 24 24">
        <path d="M7.293,2.091,5.4,3.985,1.707.293A1,1,0,0,0,.293,1.707L3.985,5.4,2.091,7.293A1,1,0,0,0,2.8,9H7.564A1.436,1.436,0,0,0,9,7.564V2.8A1,1,0,0,0,7.293,2.091Z"></path>
        <path d="M20.015,18.6l1.894-1.894A1,1,0,0,0,21.2,15H16.436A1.436,1.436,0,0,0,15,16.436V21.2a1,1,0,0,0,1.707.708L18.6,20.015l3.692,3.692a1,1,0,0,0,1.414-1.414Z"></path>
        <path d="M16.436,9H21.2a1,1,0,0,0,.708-1.707L20.015,5.4l3.692-3.692A1,1,0,0,0,22.293.293L18.6,3.985,16.707,2.091A1,1,0,0,0,15,2.8V7.564A1.436,1.436,0,0,0,16.436,9Z"></path>
        <path d="M7.564,15H2.8a1,1,0,0,0-.708,1.707L3.985,18.6.293,22.293a1,1,0,1,0,1.414,1.414L5.4,20.015l1.894,1.894A1,1,0,0,0,9,21.2V16.436A1.436,1.436,0,0,0,7.564,15Z"></path>
    </symbol>

    <!--    feature3-->
    <symbol xmlns="http://www.w3.org/2000/svg" id="feature3" viewBox="0 0 24 24">
        <path d="m19.949,5.536l-3.484-3.486c-1.323-1.322-3.081-2.05-4.95-2.05h-4.515C4.243,0,2,2.243,2,5v14c0,2.757,2.243,5,5,5h10c2.757,0,5-2.243,5-5v-8.515c0-1.871-.729-3.628-2.051-4.95Zm-1.414,1.415c.318.317.587.67.805,1.05h-4.341c-.552,0-1-.449-1-1V2.659c.38.218.733.487,1.051.805l3.484,3.486Zm1.465,12.05c0,1.654-1.346,3-3,3H7c-1.654,0-3-1.346-3-3V5c0-1.654,1.346-3,3-3h4.515c.163,0,.325.008.485.023v4.977c0,1.654,1.346,3,3,3h4.977c.015.16.023.322.023.485v8.515Zm-4.293-2.895c.391.39.391,1.023,0,1.414l-1.613,1.614c-.577.577-1.336.866-2.094.866s-1.517-.289-2.094-.866l-1.613-1.614c-.391-.391-.391-1.024,0-1.414.391-.391,1.023-.391,1.414,0l1.293,1.293v-4.398c0-.552.447-1,1-1s1,.448,1,1v4.398l1.293-1.293c.391-.391,1.023-.391,1.414,0Z"></path>
    </symbol>

    <!--    feature4-->
    <symbol xmlns="http://www.w3.org/2000/svg" id="feature4" viewBox="0 0 24 24">
        <path d="M7,6c0-.552,.448-1,1-1h8c.553,0,1,.448,1,1s-.447,1-1,1H8c-.552,0-1-.448-1-1Zm1,5h6c.553,0,1-.448,1-1s-.447-1-1-1h-6c-.552,0-1,.448-1,1s.448,1,1,1Zm16,1.708v6.292c0,2.757-2.243,5-5,5H5c-2.757,0-5-2.243-5-5v-6.292c0-1.356,.562-2.673,1.541-3.611l1.459-1.398v-3.699C3,1.794,4.794,0,7,0h10c2.206,0,4,1.794,4,4v3.699l1.459,1.397c.979,.938,1.541,2.254,1.541,3.611ZM5,4V12.243l4.878,4.879c1.134,1.133,3.11,1.133,4.243,0l4.879-4.879V4c0-1.103-.897-2-2-2H7c-1.103,0-2,.897-2,2ZM22,12.708c0-.195-.02-.389-.058-.579l-6.407,6.407c-.944,.944-2.199,1.464-3.535,1.464s-2.591-.52-3.536-1.464L2.058,12.128c-.038,.19-.058,.384-.058,.579v6.292c0,1.654,1.346,3,3,3h14c1.654,0,3-1.346,3-3v-6.292Z"></path>
    </symbol>

    <!--    projects-->
    <symbol xmlns="http://www.w3.org/2000/svg" id="projects" viewBox="0 0 24 24">
        <path d="M22.485,10.975,12,17.267,1.515,10.975A1,1,0,1,0,.486,12.69l11,6.6a1,1,0,0,0,1.03,0l11-6.6a1,1,0,1,0-1.029-1.715Z"></path>
        <path d="M22.485,15.543,12,21.834,1.515,15.543A1,1,0,1,0,.486,17.258l11,6.6a1,1,0,0,0,1.03,0l11-6.6a1,1,0,1,0-1.029-1.715Z"></path>
        <path d="M12,14.773a2.976,2.976,0,0,1-1.531-.425L.485,8.357a1,1,0,0,1,0-1.714L10.469.652a2.973,2.973,0,0,1,3.062,0l9.984,5.991a1,1,0,0,1,0,1.714l-9.984,5.991A2.976,2.976,0,0,1,12,14.773ZM2.944,7.5,11.5,12.633a.974.974,0,0,0,1,0L21.056,7.5,12.5,2.367a.974.974,0,0,0-1,0h0Z"></path>
    </symbol>

    <!--    dashboard-->
    <symbol xmlns="http://www.w3.org/2000/svg" id="dashboard" viewBox="0 0 24 24">
        <path d="M2,11H13a2,2,0,0,0,2-2V2a2,2,0,0,0-2-2H2A2,2,0,0,0,0,2V9A2,2,0,0,0,2,11ZM2,2H13V9H2Z"></path>
        <path d="M22,0H19a2,2,0,0,0-2,2V9a2,2,0,0,0,2,2h3a2,2,0,0,0,2-2V2A2,2,0,0,0,22,0Zm0,9H19V2h3Z"></path>
        <path d="M5,13H2a2,2,0,0,0-2,2v7a2,2,0,0,0,2,2H5a2,2,0,0,0,2-2V15A2,2,0,0,0,5,13Zm0,9H2V15H5Z"></path>
        <path d="M22,13H11a2,2,0,0,0-2,2v7a2,2,0,0,0,2,2H22a2,2,0,0,0,2-2V15A2,2,0,0,0,22,13Zm0,9H11V15H22Z"></path>
    </symbol>

    <!--    contacts-->
    <symbol xmlns="http://www.w3.org/2000/svg" id="contacts" viewBox="0 0 24 24">
        <path d="M12,16a4,4,0,1,1,4-4A4,4,0,0,1,12,16Zm0-6a2,2,0,1,0,2,2A2,2,0,0,0,12,10Zm6,13A6,6,0,0,0,6,23a1,1,0,0,0,2,0,4,4,0,0,1,8,0,1,1,0,0,0,2,0ZM18,8a4,4,0,1,1,4-4A4,4,0,0,1,18,8Zm0-6a2,2,0,1,0,2,2A2,2,0,0,0,18,2Zm6,13a6.006,6.006,0,0,0-6-6,1,1,0,0,0,0,2,4,4,0,0,1,4,4,1,1,0,0,0,2,0ZM6,8a4,4,0,1,1,4-4A4,4,0,0,1,6,8ZM6,2A2,2,0,1,0,8,4,2,2,0,0,0,6,2ZM2,15a4,4,0,0,1,4-4A1,1,0,0,0,6,9a6.006,6.006,0,0,0-6,6,1,1,0,0,0,2,0Z"></path>
    </symbol>

    <!--    jiris-->
    <symbol xmlns="http://www.w3.org/2000/svg" id="jiris" viewBox="0 0 24 24">
        <path d="m8,11h-3c-.552,0-1-.448-1-1s.448-1,1-1h3c.552,0,1,.448,1,1s-.448,1-1,1Zm15.759,12.651c-.198.23-.478.349-.76.349-.23,0-.462-.079-.65-.241l-2.509-2.151c-1.041.868-2.379,1.391-3.84,1.391-3.314,0-6-2.686-6-6s2.686-6,6-6,6,2.686,6,6c0,1.13-.318,2.184-.862,3.087l2.513,2.154c.419.359.468.991.108,1.41Zm-6.78-4.325l2.703-2.614c.398-.383.411-1.016.029-1.414-.383-.399-1.017-.41-1.414-.029l-2.713,2.624c-.143.141-.379.144-.522.002l-1.354-1.331c-.396-.388-1.028-.381-1.414.014-.387.395-.381,1.027.014,1.414l1.354,1.332c.46.449,1.062.674,1.663.674s1.201-.225,1.653-.671Zm-5.979,3.674c0,.552-.448,1-1,1h-5c-2.757,0-5-2.243-5-5V5C0,2.243,2.243,0,5,0h4.515c1.87,0,3.627.728,4.95,2.05l3.485,3.485c.888.888,1.521,2,1.833,3.217.077.299.011.617-.179.861s-.481.387-.79.387h-5.813c-1.654,0-3-1.346-3-3V2.023c-.16-.015-.322-.023-.485-.023h-4.515c-1.654,0-3,1.346-3,3v14c0,1.654,1.346,3,3,3h5c.552,0,1,.448,1,1Zm1-16c0,.551.449,1,1,1h4.338c-.219-.382-.489-.736-.803-1.05l-3.485-3.485c-.318-.318-.671-.587-1.05-.806v4.341Zm-5,6h-2c-.552,0-1,.448-1,1s.448,1,1,1h2c.552,0,1-.448,1-1s-.448-1-1-1Zm0,4h-2c-.552,0-1,.448-1,1s.448,1,1,1h2c.552,0,1-.448,1-1s-.448-1-1-1Z"></path>
    </symbol>

    <!--    search-->
    <symbol xmlns="http://www.w3.org/2000/svg" xmlns:xlink="http://www.w3.org/1999/xlink" version="1.1" id="search" xml:space="preserve" viewBox="0 0 513.749 513.749">
    <g>
      <path d="M504.352,459.061l-99.435-99.477c74.402-99.427,54.115-240.344-45.312-314.746S119.261-9.277,44.859,90.15   S-9.256,330.494,90.171,404.896c79.868,59.766,189.565,59.766,269.434,0l99.477,99.477c12.501,12.501,32.769,12.501,45.269,0   c12.501-12.501,12.501-32.769,0-45.269L504.352,459.061z M225.717,385.696c-88.366,0-160-71.634-160-160s71.634-160,160-160   s160,71.634,160,160C385.623,314.022,314.044,385.602,225.717,385.696z"></path>
    </g>
  </symbol>

    <!--    close-->
    <symbol xmlns="http://www.w3.org/2000/svg" xmlns:xlink="http://www.w3.org/1999/xlink" id="close" xml:space="preserve" viewBox="0 0 512.021 512.021">
    <g>
      <path d="M301.258,256.01L502.645,54.645c12.501-12.501,12.501-32.769,0-45.269c-12.501-12.501-32.769-12.501-45.269,0l0,0   L256.01,210.762L54.645,9.376c-12.501-12.501-32.769-12.501-45.269,0s-12.501,32.769,0,45.269L210.762,256.01L9.376,457.376   c-12.501,12.501-12.501,32.769,0,45.269s32.769,12.501,45.269,0L256.01,301.258l201.365,201.387   c12.501,12.501,32.769,12.501,45.269,0c12.501-12.501,12.501-32.769,0-45.269L301.258,256.01z"></path>
    </g>
  </symbol>

    <!--    more-->
    <symbol xmlns="http://www.w3.org/2000/svg" xmlns:xlink="http://www.w3.org/1999/xlink" id="more"  xml:space="preserve" viewBox="0 0 512 512">
    <g>
      <circle cx="458.667" cy="256" r="53.333"></circle>
        <circle cx="256" cy="256" r="53.333"></circle>
        <circle cx="53.333" cy="256" r="53.333"></circle>
    </g>
  </symbol>

    <!--    trash-->
    <symbol xmlns="http://www.w3.org/2000/svg" id="trash" viewBox="0 0 24 24">
        <path d="M21,4H17.9A5.009,5.009,0,0,0,13,0H11A5.009,5.009,0,0,0,6.1,4H3A1,1,0,0,0,3,6H4V19a5.006,5.006,0,0,0,5,5h6a5.006,5.006,0,0,0,5-5V6h1a1,1,0,0,0,0-2ZM11,2h2a3.006,3.006,0,0,1,2.829,2H8.171A3.006,3.006,0,0,1,11,2Zm7,17a3,3,0,0,1-3,3H9a3,3,0,0,1-3-3V6H18Z"></path>
        <path d="M10,18a1,1,0,0,0,1-1V11a1,1,0,0,0-2,0v6A1,1,0,0,0,10,18Z"></path>
        <path d="M14,18a1,1,0,0,0,1-1V11a1,1,0,0,0-2,0v6A1,1,0,0,0,14,18Z"></path>
    </symbol>

    <!--    trash1-->
    <symbol xmlns="http://www.w3.org/2000/svg" id="trash1" viewBox="0 0 24 24">
        <path d="m23,3h-5v-.5c0-1.379-1.122-2.5-2.5-2.5h-7c-1.378,0-2.5,1.121-2.5,2.5v.5H1v3h1.62l1.233,14.791c.15,1.799,1.682,3.209,3.488,3.209h9.319c1.806,0,3.338-1.41,3.488-3.209l1.233-14.791h1.62v-3Zm-5.842,17.541c-.022.262-.236.459-.499.459H7.34c-.262,0-.477-.197-.499-.459l-1.212-14.541h12.74l-1.212,14.541Zm-9.469-5.352l2.189-2.189-2.189-2.189,2.121-2.121,2.189,2.189,2.189-2.189,2.121,2.121-2.189,2.189,2.189,2.189-2.121,2.121-2.189-2.189-2.189,2.189-2.121-2.121Z"></path>
    </symbol>

    <!--  trash2    -->
    <symbol xmlns="http://www.w3.org/2000/svg" viewBox="0 0 24 24" id="trash2">
        <path d="m17 4v-2c0-1.103-.897-2-2-2h-6c-1.103 0-2 .897-2 2v2h-6v2h1.644l1.703 15.331c.169 1.521 1.451 2.669 2.982 2.669h9.304c1.531 0 2.813-1.147 2.981-2.669l1.703-15.331h1.682v-2h-6zm-8-2h6v2h-6zm6.957 14.543-1.414 1.414-2.543-2.543-2.543 2.543-1.414-1.414 2.543-2.543-2.543-2.543 1.414-1.414 2.543 2.543 2.543-2.543 1.414 1.414-2.543 2.543z"></path>
    </symbol>

    <!--    plus-->
    <symbol xmlns="http://www.w3.org/2000/svg" xmlns:xlink="http://www.w3.org/1999/xlink" id="plus" xml:space="preserve" viewBox="0 0 512 512">
        <g>
          <path d="M480,224H288V32c0-17.673-14.327-32-32-32s-32,14.327-32,32v192H32c-17.673,0-32,14.327-32,32s14.327,32,32,32h192v192   c0,17.673,14.327,32,32,32s32-14.327,32-32V288h192c17.673,0,32-14.327,32-32S497.673,224,480,224z"></path>
        </g>
      </symbol>

    <!--  eye  -->
    <symbol xmlns="http://www.w3.org/2000/svg" viewBox="0 0 24 24" id="eye">
        <path d="M2.99902 3L20.999 21M9.8433 9.91364C9.32066 10.4536 8.99902 11.1892 8.99902 12C8.99902 13.6569 10.3422 15 11.999 15C12.8215 15 13.5667 14.669 14.1086 14.133M6.49902 6.64715C4.59972 7.90034 3.15305 9.78394 2.45703 12C3.73128 16.0571 7.52159 19 11.9992 19C13.9881 19 15.8414 18.4194 17.3988 17.4184M10.999 5.04939C11.328 5.01673 11.6617 5 11.9992 5C16.4769 5 20.2672 7.94291 21.5414 12C21.2607 12.894 20.8577 13.7338 20.3522 14.5" stroke="#000000" stroke-width="2" stroke-linecap="round" stroke-linejoin="round"></path>
    </symbol>

    <!--  check  -->
    <symbol xmlns="http://www.w3.org/2000/svg" viewBox="0 0 80 80" id="check">
        <path d="M40 0C17.92 0 0 17.92 0 40C0 62.08 17.92 80 40 80C62.08 80 80 62.08 80 40C80 17.92 62.08 0 40 0ZM29.16 57.16L14.8 42.8C13.24 41.24 13.24 38.72 14.8 37.16C16.36 35.6 18.88 35.6 20.44 37.16L32 48.68L59.52 21.16C61.08 19.6 63.6 19.6 65.16 21.16C66.72 22.72 66.72 25.24 65.16 26.8L34.8 57.16C33.28 58.72 30.72 58.72 29.16 57.16Z"></path>
    </symbol>

</svg>
